Fast and Furious 4 (2009) DVDRip-MAX

Format                           : AVI
Format/Info                      : Audio Video Interleave
File size                        : 702 MiB
Duration                         : 1h 45mn
Overall bit rate                 : 927 Kbps
Writing application              : Hyper HD Xvid
Writing library                  : VirtualDub build 31953/release
Original source form             : MAX TORRENTZ
Copyright                        : SIGISMUNT

Video
Format                           : MPEG-4 Visual
Format profile                   : Streaming Video@L1
Format settings, BVOP            : Yes
Format settings, QPel            : No
Format settings, GMC             : No warppoints
Format settings, Matrix          : Default (H.263)
Muxing mode                      : Packed bitstream
Codec ID                         : XVID
Codec ID/Hint                    : XviD
Duration                         : 1h 45mn
Bit rate                         : 813 Kbps
Width                            : 672 pixels
Height                           : 288 pixels
Display aspect ratio             : 2.35
Frame rate                       : 23.976 fps
Resolution                       : 24 bits
Colorimetry                      : 4:2:0
Scan type                        : Progressive
Bits/(Pixel*Frame)               : 0.175
Stream size                      : 616 MiB (88%)
Writing library                  : XviD 1.2.1 (UTC 2008-12-04)

Audio
Format                           : MPEG Audio
Format version                   : Version 1
Format profile                   : Layer 3
Codec ID                         : 55
Codec ID/Hint                    : MP3
Duration                         : 1h 45mn
Bit rate mode                    : Variable
Bit rate                         : 101 Kbps
Channel(s)                       : 2 channels
Sampling rate                    : 44.1 KHz
Resolution                       : 16 bits
Stream size                      : 76.4 MiB (11%)
Alignment                        : Aligned on interleaves
Interleave, duration             : 26 ms (0.63 video frame)
Interleave, preload duration     : 344 ms

Screens: 
http://www.postimg.com/image/8000/7454.jpg 
http://www.postimg.com/image/8000/7455.jpg 
http://www.postimg.com/image/8000/7456.jpg

ScreenCaps: 
http://www.postimg.com/image/8000/7457.jpg